<?xml version="1.0" encoding="UTF-8"?>
<svg width="234.59mm" height="118.93mm" version="1.1" viewBox="0 0 234.59 118.93" xmlns="http://www.w3.org/2000/svg">
 <g transform="translate(4.7188 -103.94)">
  <path d="m70.874 221.94c6.5536-2.2159 11.967-5.6346 17.092-10.794 1.2995-1.3082 2.8265-3.0455 3.3934-3.8607 2.047-2.9436 1.7851-2.7753 4.0061-2.5741 4.0122 0.36357 32.619 0.19905 39.595-0.22772 12.889-0.78848 20.775-1.971 22.861-3.4278 0.93104-0.65022 2.0452-2.3472 2.4118-3.6732 1.0088-3.6494 1.4377-7.3113 2.3291-19.89 0.42539-6.0022 0.42924-39.615 5e-3 -45.905-0.91223-13.533-1.5961-18.712-2.8525-21.601-0.39625-0.91133-1.9358-2.3824-2.8617-2.7344-2.3346-0.88763-7.9381-1.8126-14.435-2.3828-10.508-0.92219-39.765-1.2464-51.065-0.56591-10.149 0.61117-15.65 1.2533-19.976 2.3316-0.87312 0.21764-1.8764 0.4621-2.2295 0.54324-0.35309 0.0811-1.265 0.75471-2.0264 1.4968-1.23 1.1987-1.4572 1.6002-2.0363 3.5982-2.0731 7.1516-3.0994 21.083-3.1001 42.081-7.94e-4 22.33 1.3096 38.271 3.5773 43.52 0.9245 2.1397 2.4791 3.4123 5.0068 4.0983 1.1721 0.31813 2.28 0.62197 2.4619 0.67521 0.6192 0.18119 0.12401 5.784-0.83625 9.4618-0.82826 3.1722-3.0253 7.5574-4.8729 9.7263l-0.88052 1.0336h0.84304c0.46367 0 2.0787-0.41781 3.5891-0.92847zm39.614-34.337c-0.86532-0.48128-14.676-14.653-15.362-15.764-1.1734-1.8995-0.5746-4.4385 1.3191-5.5931 0.96478-0.58824 3.0507-0.71065 3.9886-0.23407 0.31785 0.16153 3.1564 2.9297 6.3079 6.1516l5.73 5.8579 5.618-5.7671c3.0899-3.1719 5.9526-5.9401 6.3616-6.1516 1.0844-0.56076 3.1118-0.48707 4.1586 0.15113 0.97146 0.59229 1.8879 2.3167 1.897 3.5696 3e-3 0.43883-0.21325 1.2063-0.48099 1.7056-0.53094 0.99001-13.259 14.18-15.017 15.562-0.92306 0.72559-1.2967 0.85088-2.5135 0.8429-0.78613-5e-3 -1.6893-0.15398-2.0071-0.33073zm-35.413-38.414c-1.2781-1.2781-1.3221-1.4493-1.1917-4.6372 0.12482-3.0511 1.7208-6.7408 4.0859-9.4459 1.325-1.5155 4.246-3.5681 6.0371-4.2423 2.713-1.0212 3.3154-1.1284 6.3404-1.1284 2.5225 0 3.4014 0.11265 5.0322 0.64499 6.8287 2.2291 11.585 8.5257 11.585 15.336 0 2.1748-0.54367 3.313-1.9844 4.1542-1.1166 0.65199-3.307 0.64059-4.4319-0.0231-1.0791-0.63668-2.0462-2.2685-2.0621-3.4795-0.05772-4.3991-3.776-8.1661-8.0606-8.1661-3.2731 0-6.3778 2.119-7.5002 5.1188-0.31189 0.8336-0.56969 1.9576-0.57288 2.4979-0.0081 1.3739-0.82972 3.0344-1.9086 3.8572-0.75926 0.57911-1.1901 0.69689-2.5493 0.69689-1.5843 0-1.6728-0.0371-2.8193-1.1837zm44.185 0c-1.2781-1.2781-1.3221-1.4493-1.1917-4.6372 0.12845-3.1397 1.7487-6.8098 4.2413-9.6071 1.35-1.515 4.3502-3.5744 6.1007-4.1877 2.6639-0.9333 3.1946-1.0219 6.1213-1.0219 2.5225 0 3.4014 0.11265 5.0322 0.64499 6.806 2.2217 11.588 8.5411 11.584 15.309-2e-3 3.0982-1.4044 4.6805-4.1511 4.6825-2.4166 2e-3 -4.2957-1.7459-4.3263-4.0234-0.0588-4.3802-3.7853-8.1465-8.0606-8.1465-4.2264 0-8.0673 3.6628-8.0673 7.6934 0 1.3539-0.80839 2.937-1.9408 3.8007-0.73068 0.55732-1.176 0.67679-2.5229 0.67679-1.5843 0-1.6728-0.0371-2.8193-1.1837zm-63.026 32.206c0.1172-0.22987-0.25642-9.5332-0.53925-13.428l-0.19216-2.6458-18.785 0.016-1.5077 0.69908c-5.7579 2.6697-6.6644 9.6116-1.799 13.776 1.9589 1.6767 2.4764 1.7462 13.147 1.7644 5.2665 9e-3 9.6211-0.073 9.6767-0.18211zm132.85-0.17577c2.3391-0.70397 4.4916-2.8703 5.377-5.4116 1.3086-3.7558-0.77125-8.0091-4.8252-9.8674-1.2878-0.59034-1.5032-0.60262-10.707-0.61056l-9.3927-8e-3 -0.16521 3.4396c-0.0909 1.8918-0.25054 5.5529-0.35483 8.1359l-0.18964 4.6964h9.5071c7.4323 0 9.7784-0.0817 10.75-0.37421zm-133.78-22.6c0.26043-0.16531 0.31913-1.9988 0.26458-8.2642l-0.0701-8.0517-18.65-0.0679c-11.026-0.0402-19.208 0.0352-20.015 0.18451-1.8588 0.3436-3.4896 1.1512-4.7134 2.3341-3.1421 3.0371-3.2066 7.9561-0.14772 11.275 1.2368 1.3417 2.4232 1.9864 4.5003 2.4454 1.6812 0.3715 38.26 0.50843 38.832 0.14536zm154.54-0.42319c1.8659-0.67448 3.7993-2.4465 4.7241-4.3297 0.59726-1.2162 0.74093-1.868 0.74093-3.3609 0-4.053-2.6855-7.1741-6.9509-8.0785-0.78794-0.16707-8.206-0.23906-20.037-0.19444l-18.785 0.0709-0.0701 8.0517c-0.0545 6.2634 4e-3 8.1 0.26458 8.2689 0.18408 0.11945 8.9667 0.18705 19.517 0.15022 18.199-0.0635 19.255-0.0932 20.596-0.57815zm-153.89-24.889c0.74632-9.2618 1.0019-13.729 0.79724-13.933-0.13328-0.13328-12.057-0.20279-27.731-0.16167l-27.497 0.0721-1.5875 0.77478c-1.8369 0.89651-3.0456 2.1024-3.9734 3.9641-0.84959 1.7049-0.92209 4.9702-0.1482 6.6744 1.0915 2.4038 3.3658 4.1037 6.3705 4.7615 1.0878 0.23814 8.0352 0.30731 27.517 0.27396l26.061-0.0446zm168.46 1.9137c2.7744-1.1081 4.8024-3.5357 5.3277-6.3776 0.70975-3.8394-1.5651-7.6315-5.4401-9.0684-1.2519-0.46424-2.7917-0.4944-28.676-0.56157l-27.353-0.071 0.15507 2.0554c0.0853 1.1304 0.28774 4.7343 0.44989 8.0085 0.16214 3.2742 0.3438 6.1052 0.40367 6.2911 0.0876 0.27193 5.3696 0.32362 27.036 0.26458 25.025-0.0682 27.01-0.10639 28.098-0.54095z" style="stroke-width:.26458"/>
 </g>
</svg>
